HIERARCHY
ROOT Hips
{
	OFFSET 0.000000 0.000000 0.000000 
	CHANNELS 6 Xposition Yposition Zposition Zrotation Yrotation Xrotation
	JOINT LeftUpLeg
	{
		OFFSET 1.363060 -1.794630 0.839290 
		CHANNELS 3 Zrotation Yrotation Xrotation
		JOINT LeftLeg
		{
			OFFSET 2.448110 -6.726130 0.000000 
			CHANNELS 3 Zrotation Yrotation Xrotation
			JOINT LeftFoot
			{
				OFFSET 2.562200 -7.039590 0.000000 
				CHANNELS 3 Zrotation Yrotation Xrotation
				JOINT LeftToeBase
				{
					OFFSET 0.157640 -0.433110 2.322550 
					CHANNELS 3 Zrotation Yrotation Xrotation
					End Site
					{
						OFFSET 0.000000 0.000000 0.000000 
					}
				}
			}
		}
	}
	JOINT RightUpLeg
	{
		OFFSET -1.305520 -1.794630 0.839290 
		CHANNELS 3 Zrotation Yrotation Xrotation
		JOINT RightLeg
		{
			OFFSET -2.542530 -6.985550 0.000000 
			CHANNELS 3 Zrotation Yrotation Xrotation
			JOINT RightFoot
			{
				OFFSET -2.568260 -7.056230 0.000000 
				CHANNELS 3 Zrotation Yrotation Xrotation
				JOINT RightToeBase
				{
					OFFSET -0.164730 -0.452590 2.363150 
					CHANNELS 3 Zrotation Yrotation Xrotation
					End Site
					{
						OFFSET 0.000000 0.000000 0.000000 
					}
				}
			}
		}
	}
	JOINT Spine
	{
		OFFSET 0.028270 2.035590 -0.193380 
		CHANNELS 3 Zrotation Yrotation Xrotation
		JOINT Spine1
		{
			OFFSET 0.056720 2.048850 -0.042750 
			CHANNELS 3 Zrotation Yrotation Xrotation
			JOINT Neck1
			{
				OFFSET -0.054170 1.746240 0.172020 
				CHANNELS 3 Zrotation Yrotation Xrotation
				JOINT Head
				{
					OFFSET 0.104070 1.761360 -0.123970 
					CHANNELS 3 Zrotation Yrotation Xrotation
					End Site
					{
						OFFSET 0.000000 0.000000 0.000000 
					}
				}
			}
			JOINT LeftArm
			{
				OFFSET 3.362410 1.200890 -0.311210 
				CHANNELS 3 Zrotation Yrotation Xrotation
				JOINT LeftForeArm
				{
					OFFSET 4.983000 -0.000000 -0.000000 
					CHANNELS 3 Zrotation Yrotation Xrotation
					JOINT LeftHand
					{
						OFFSET 3.483560 -0.000000 -0.000000 
						CHANNELS 3 Zrotation Yrotation Xrotation
						JOINT LeftHandIndex1
						{
							OFFSET 0.715260 -0.000000 -0.000000 
							CHANNELS 3 Zrotation Yrotation Xrotation
							End Site
							{
								OFFSET 0.000000 0.000000 0.000000 
							}
						}
					}
				}
			}
			JOINT RightArm
			{
				OFFSET -3.136600 1.374050 -0.404650 
				CHANNELS 3 Zrotation Yrotation Xrotation
				JOINT RightForeArm
				{
					OFFSET -5.241900 -0.000000 -0.000000 
					CHANNELS 3 Zrotation Yrotation Xrotation
					JOINT RightHand
					{
						OFFSET -3.444170 -0.000000 -0.000000 
						CHANNELS 3 Zrotation Yrotation Xrotation
						JOINT RightHandIndex1
						{
							OFFSET -0.622530 -0.000000 -0.000000 
							CHANNELS 3 Zrotation Yrotation Xrotation
							End Site
							{
								OFFSET 0.000000 0.000000 0.000000 
							}
						}
					}
				}
			}
		}
	}
}
MOTION
Frames: 13
Frame Time: 0.041667
38.356082 17.270853 10.327273 -172.837603 -45.160192 169.798792 -17.220210 9.376651 5.685530 0.096977 4.744670 13.296962 -1.167600 8.901817 -10.739841 0.028800 -1.095400 -3.011400 29.458023 3.490114 -0.117937 -0.636088 -8.757150 24.265623 1.571200 -10.140355 -12.399914 -0.014500 -0.778400 2.139300 1.407209 -0.125334 -0.455161 -1.454242 -0.051865 6.235788 6.483239 -5.832737 11.196904 0.376900 -2.555200 3.000900 -78.521439 -0.860688 27.917335 7.490512 -20.266606 -2.358802 -1.104583 -1.594527 -16.381033 -7.125000 0.000000 0.000000 65.656319 24.890458 41.342933 -144.354104 39.100151 -107.721173 0.210842 0.290766 -38.693606 7.125000 0.000000 0.000000 
38.356824 17.271701 10.332147 -172.815296 -45.146454 169.813943 -17.210895 9.408926 5.630921 0.096162 4.743661 13.291396 -1.162297 8.872863 -10.722440 0.028600 -1.092200 -3.002600 29.460510 3.520060 -0.148579 -0.632258 -8.754975 24.251513 1.563918 -10.111050 -12.394140 -0.016700 -0.834300 2.293000 1.401098 -0.095241 -0.457770 -1.458575 -0.034810 6.195289 6.501552 -5.829553 11.087689 0.395800 -2.557100 2.951200 -78.481302 -0.862551 27.724957 7.506075 -20.281042 -2.371096 -1.070302 -1.616271 -16.531954 -7.125000 0.000000 0.000000 65.354723 23.665213 41.360841 -143.911906 39.629652 -107.353546 0.207227 0.286364 -37.710661 7.125000 0.000000 0.000000 
38.356506 17.273184 10.337338 -172.828474 -45.133429 169.862182 -17.242811 9.406418 5.583708 0.094988 4.745948 13.290386 -1.161997 8.871002 -10.715388 0.025800 -1.037700 -2.852500 29.423440 3.527428 -0.196040 -0.629443 -8.751790 24.232636 1.583039 -10.168555 -12.322436 -0.013400 -0.747100 2.053100 1.392011 -0.075651 -0.439527 -1.474895 -0.021190 6.250789 6.539824 -5.816198 10.937234 0.448400 -2.558100 2.850400 -78.424766 -0.950779 27.705393 7.478522 -20.237103 -2.361168 -1.067708 -1.619162 -16.566108 -7.125000 0.000000 0.000000 65.048652 22.497442 41.409506 -143.425236 40.196682 -106.946972 0.199403 0.287289 -36.788685 7.125000 0.000000 0.000000 
38.356612 17.274137 10.343377 -172.807637 -45.131942 169.889322 -17.250611 9.389401 5.522569 0.094317 4.748013 13.291035 -1.163887 8.878253 -10.707621 0.026500 -1.051600 -2.890700 29.414113 3.542276 -0.249786 -0.625200 -8.749089 24.214855 1.580230 -10.156019 -12.314324 -0.014400 -0.776100 2.133100 1.386441 -0.055218 -0.442875 -1.499700 -0.008127 6.208093 6.505142 -5.820970 10.813431 0.419300 -2.563400 2.778400 -78.379610 -0.888450 27.884468 7.496291 -20.264794 -2.363153 -1.097410 -1.609383 -16.405484 -7.125000 0.000000 0.000000 64.785363 21.240476 41.500445 -142.808118 40.864966 -106.443154 0.188114 0.289934 -35.996670 7.125000 0.000000 0.000000 
38.356612 17.275409 10.349099 -172.791355 -45.123659 169.919530 -17.258028 9.382842 5.461535 0.093666 4.750093 13.291531 -1.164116 8.877839 -10.697535 0.026300 -1.046100 -2.875800 29.401720 3.555812 -0.303010 -0.621112 -8.746271 24.196549 1.582426 -10.157108 -12.283119 -0.014600 -0.779500 2.142300 1.380357 -0.033720 -0.442529 -1.514177 0.005191 6.183597 6.508193 -5.818857 10.683845 0.429100 -2.566900 2.706100 -78.333772 -0.868314 27.950746 7.505896 -20.276543 -2.365019 -1.105481 -1.607377 -16.382667 -7.125000 0.000000 0.000000 64.516287 20.014158 41.584702 -142.190010 41.514675 -105.936985 0.175908 0.293653 -35.189207 7.125000 0.000000 0.000000 
38.356612 17.276680 10.354926 -172.774547 -45.113579 169.950383 -17.266256 9.373450 5.397009 0.093415 4.754172 13.297316 -1.164297 8.877215 -10.689778 0.026000 -1.041300 -2.862600 29.387608 3.566061 -0.358979 -0.617066 -8.743219 24.177281 1.584230 -10.156200 -12.248058 -0.014600 -0.780200 2.144200 1.374736 -0.013230 -0.443863 -1.526470 0.017616 6.153155 6.509882 -5.815379 10.557155 0.437300 -2.569500 2.638600 -78.289735 -0.837002 28.040325 7.518616 -20.293246 -2.367420 -1.115409 -1.603726 -16.361099 -7.125000 0.000000 0.000000 64.258363 18.790919 41.681413 -141.503019 42.203318 -105.377471 0.162091 0.299128 -34.442702 7.125000 0.000000 0.000000 
38.356294 17.277952 10.360859 -172.761364 -45.103397 169.982684 -17.275908 9.367755 5.335146 0.092728 4.756376 13.297858 -1.164470 8.876169 -10.678242 0.026000 -1.040500 -2.860100 29.370044 3.572480 -0.417108 -0.613484 -8.741006 24.161508 1.583950 -10.146918 -12.212816 -0.014700 -0.783400 2.153000 1.370098 0.004286 -0.447716 -1.532909 0.027846 6.114798 6.508590 -5.808124 10.438254 0.441800 -2.569700 2.581400 -78.253303 -0.792109 28.130148 7.533509 -20.313443 -2.370389 -1.124824 -1.598734 -16.337404 -7.125000 0.000000 0.000000 64.010474 17.572940 41.790563 -140.743322 42.928594 -104.761437 0.147127 0.306216 -33.737077 7.125000 0.000000 0.000000 
38.355870 17.279117 10.366898 -172.754458 -45.092436 170.017926 -17.290133 9.366695 5.276573 0.091516 4.756815 13.293705 -1.164178 8.871705 -10.662636 0.025600 -1.033300 -2.840300 29.345523 3.573455 -0.477302 -0.610796 -8.739947 24.149634 1.583426 -10.135265 -12.171825 -0.014400 -0.776100 2.132800 1.365844 0.019091 -0.452122 -1.534734 0.036148 6.074750 6.507566 -5.797100 10.324578 0.447600 -2.568000 2.528600 -78.222305 -0.747040 28.196788 7.547947 -20.332768 -2.374137 -1.129200 -1.596705 -16.335966 -7.125000 0.000000 0.000000 63.772160 16.367527 41.904247 -139.901016 43.693319 -104.080738 0.130628 0.314645 -33.026887 7.125000 0.000000 0.000000 
38.355234 17.280282 10.372725 -172.760816 -45.083399 170.062294 -17.314039 9.370867 5.220301 0.089884 4.756263 13.285616 -1.163333 8.864119 -10.643258 0.025200 -1.025100 -2.817800 29.309998 3.571311 -0.538588 -0.608994 -8.739813 24.141904 1.581786 -10.119223 -12.131422 -0.014000 -0.764800 2.102000 1.361886 0.029238 -0.456632 -1.531987 0.041312 6.036189 6.503991 -5.778555 10.215016 0.450600 -2.562200 2.478800 -78.195664 -0.709834 28.216966 7.560438 -20.348862 -2.378607 -1.125993 -1.599004 -16.369117 -7.125000 0.000000 0.000000 63.547847 15.185275 42.021907 -138.974120 44.492014 -103.333449 0.113074 0.324295 -32.263106 7.125000 0.000000 0.000000 
38.354387 17.281236 10.378658 -172.772878 -45.073347 170.110096 -17.342187 9.381302 5.165930 0.087925 4.754778 13.274591 -1.161950 8.852888 -10.618978 0.024600 -1.013200 -2.785100 29.269784 3.570693 -0.598532 -0.607827 -8.740817 24.138034 1.579396 -10.101188 -12.094533 -0.013600 -0.752800 2.069000 1.357569 0.037657 -0.459543 -1.531137 0.045546 6.005801 6.498278 -5.758480 10.107495 0.452300 -2.555600 2.429200 -78.167710 -0.687997 28.200164 7.569615 -20.359660 -2.383250 -1.116114 -1.606306 -16.432408 -7.125000 0.000000 0.000000 63.337698 14.030191 42.139099 -137.953590 45.324920 -102.511633 0.094354 0.335524 -31.390897 7.125000 0.000000 0.000000 
38.353857 17.282295 10.384698 -172.783961 -45.062345 170.157783 -17.368946 9.391241 5.109437 0.085855 4.752901 13.262696 -1.160475 8.841019 -10.594150 0.023900 -0.997700 -2.742600 29.232831 3.577705 -0.659807 -0.606931 -8.743023 24.136948 1.577423 -10.086138 -12.063428 -0.013200 -0.742700 2.041100 1.353632 0.043433 -0.462815 -1.528566 0.048103 5.972378 6.491645 -5.734489 10.003516 0.454400 -2.547200 2.379700 -78.140268 -0.672020 28.147444 7.578985 -20.369841 -2.389160 -1.099829 -1.617690 -16.534237 -7.125000 0.000000 0.000000 63.143624 12.900962 42.260039 -136.835660 46.186370 -101.611642 0.074940 0.348242 -30.376308 7.125000 0.000000 0.000000 
38.353327 17.283355 10.390737 -172.794697 -45.046364 170.204083 -17.393416 9.407090 5.052703 0.083960 4.751218 13.251202 -1.158454 8.826639 -10.569320 0.023100 -0.980600 -2.695500 29.200290 3.593882 -0.718005 -0.606261 -8.746272 24.138316 1.576513 -10.077215 -12.038952 -0.012800 -0.731900 2.011300 1.349828 0.048237 -0.463903 -1.526664 0.050120 5.949733 6.484361 -5.706614 9.899701 0.456300 -2.536900 2.329300 -78.112116 -0.668367 28.072171 7.587022 -20.377638 -2.395304 -1.080862 -1.630741 -16.650588 -7.125000 0.000000 0.000000 62.966042 11.810503 42.382478 -135.612826 47.073475 -100.626868 0.054031 0.363232 -29.215236 7.125000 0.000000 0.000000 
38.352903 17.284308 10.396882 -172.805294 -45.026586 170.250395 -17.418574 9.419506 4.998001 0.082126 4.749512 13.239973 -1.157368 8.817973 -10.550883 0.022300 -0.963300 -2.647900 29.170791 3.618972 -0.774750 -0.605886 -8.750530 24.142109 1.575976 -10.070655 -12.019382 -0.012600 -0.725800 1.994600 1.346101 0.052173 -0.464713 -1.524801 0.051582 5.926933 6.477634 -5.675143 9.798110 0.459600 -2.524800 2.278500 -78.085525 -0.663580 27.996157 7.592181 -20.381712 -2.400422 -1.063841 -1.642393 -16.752421 -7.125000 0.000000 0.000000 62.804104 10.747521 42.524104 -134.279000 47.981209 -99.549751 0.034199 0.378976 -27.888312 7.125000 0.000000 0.000000 
